<svg width="230" height="88" viewBox="0 0 230 88" fill="none" xmlns="http://www.w3.org/2000/svg">
<rect y="1.16553" width="228.015" height="85.669" rx="7" fill="#2B2B33"/>
<rect y="1.16553" width="228.015" height="85.669" rx="7" stroke="#999999" stroke-width="2"/>
<path d="M51.6367 42.5762C51.5888 37.2522 55.9959 34.6621 56.1974 34.5415C53.7015 30.9025 49.8328 30.4053 48.4734 30.3657C45.2242 30.0237 42.0724 32.3099 40.4173 32.3099C38.7291 32.3099 36.1803 30.3987 33.4333 30.4549C29.8983 30.5094 26.5913 32.556 24.7776 35.7342C21.0345 42.2144 23.8261 51.7373 27.4123 56.9753C29.2062 59.5407 31.3024 62.405 34.0461 62.3042C36.7304 62.1935 37.733 60.5929 40.9723 60.5929C44.1819 60.5929 45.1234 62.3042 47.9216 62.2398C50.8025 62.1935 52.6162 59.6629 54.3473 57.0745C56.4204 54.1342 57.253 51.2385 57.286 51.0898C57.2183 51.0667 51.6912 48.9573 51.6367 42.5762Z" fill="white"/>
<path d="M46.3507 26.9199C47.7945 25.1145 48.7823 22.6582 48.5081 20.1655C46.4185 20.258 43.8052 21.6109 42.3004 23.3767C40.969 24.9328 39.7797 27.4832 40.0869 29.8817C42.4342 30.0568 44.8442 28.6973 46.3507 26.9199Z" fill="white"/>
<path d="M91.8446 61.3758H88.0932L86.0383 54.9187H78.8957L76.9383 61.3758H73.286L80.3625 39.3929H84.7333L91.8446 61.3758ZM85.4189 52.2097L83.5605 46.4695C83.364 45.8831 82.9956 44.5021 82.4521 42.3283H82.3861C82.1697 43.2632 81.8211 44.6442 81.3421 46.4695L79.5168 52.2097H85.4189V52.2097Z" fill="white"/>
<path d="M110.043 53.2553C110.043 55.9511 109.315 58.082 107.858 59.6463C106.553 61.0388 104.932 61.7343 102.998 61.7343C100.91 61.7343 99.4101 60.9843 98.4966 59.4844H98.4305V67.8345H94.9088V50.7428C94.9088 49.048 94.8642 47.3086 94.7783 45.5246H97.8755L98.0721 48.0371H98.1381C99.3126 46.1441 101.095 45.1992 103.487 45.1992C105.357 45.1992 106.918 45.9376 108.167 47.416C109.419 48.8961 110.043 50.8419 110.043 53.2553ZM106.455 53.3841C106.455 51.8413 106.108 50.5694 105.411 49.5684C104.65 48.5244 103.627 48.0024 102.345 48.0024C101.477 48.0024 100.687 48.2931 99.9816 48.8663C99.2746 49.4445 98.8121 50.1994 98.5957 51.1343C98.4867 51.5704 98.4322 51.9272 98.4322 52.208V54.851C98.4322 56.004 98.7857 56.9769 99.4926 57.7715C100.2 58.566 101.118 58.9624 102.248 58.9624C103.574 58.9624 104.607 58.4504 105.345 57.4295C106.085 56.407 106.455 55.0591 106.455 53.3841Z" fill="white"/>
<path d="M128.275 53.2553C128.275 55.9511 127.546 58.082 126.087 59.6463C124.784 61.0388 123.164 61.7343 121.229 61.7343C119.141 61.7343 117.642 60.9843 116.73 59.4844H116.664V67.8345H113.142V50.7428C113.142 49.048 113.097 47.3086 113.011 45.5246H116.109L116.305 48.0371H116.371C117.544 46.1441 119.326 45.1992 121.72 45.1992C123.588 45.1992 125.149 45.9376 126.401 47.416C127.648 48.8961 128.275 50.8419 128.275 53.2553ZM124.687 53.3841C124.687 51.8413 124.338 50.5694 123.641 49.5684C122.88 48.5244 121.86 48.0024 120.577 48.0024C119.706 48.0024 118.918 48.2931 118.211 48.8663C117.504 49.4445 117.044 50.1994 116.827 51.1343C116.72 51.5704 116.664 51.9272 116.664 52.208V54.851C116.664 56.004 117.017 56.9769 117.721 57.7715C118.428 58.5644 119.346 58.9624 120.479 58.9624C121.806 58.9624 122.838 58.4504 123.577 57.4295C124.317 56.407 124.687 55.0591 124.687 53.3841Z" fill="white"/>
<path d="M148.658 55.211C148.658 57.0809 148.009 58.6023 146.706 59.7768C145.274 61.0602 143.28 61.7012 140.718 61.7012C138.352 61.7012 136.456 61.2452 135.021 60.3318L135.837 57.3964C137.383 58.3314 139.079 58.8005 140.928 58.8005C142.254 58.8005 143.287 58.4999 144.028 57.9019C144.767 57.3039 145.135 56.5011 145.135 55.5001C145.135 54.6081 144.831 53.8565 144.221 53.247C143.615 52.6375 142.603 52.0709 141.189 51.5472C137.34 50.1118 135.417 48.009 135.417 45.2438C135.417 43.4366 136.091 41.9549 137.441 40.8019C138.785 39.6473 140.579 39.0708 142.822 39.0708C144.823 39.0708 146.485 39.4193 147.811 40.1148L146.931 42.9857C145.692 42.3117 144.291 41.9748 142.723 41.9748C141.484 41.9748 140.516 42.2803 139.823 42.8882C139.236 43.4317 138.942 44.0941 138.942 44.8787C138.942 45.7476 139.277 46.4661 139.951 47.0311C140.538 47.5531 141.603 48.118 143.149 48.7275C145.041 49.489 146.43 50.3794 147.324 51.4002C148.214 52.4178 148.658 53.6913 148.658 55.211Z" fill="white"/>
<path d="M160.302 48.1675H156.42V55.8635C156.42 57.8209 157.104 58.7988 158.475 58.7988C159.105 58.7988 159.627 58.7443 160.04 58.6353L160.137 61.3096C159.443 61.569 158.53 61.6995 157.398 61.6995C156.007 61.6995 154.921 61.2749 154.136 60.4275C153.355 59.5785 152.961 58.1546 152.961 56.1542V48.1642H150.649V45.5212H152.961V42.6189L156.42 41.575V45.5212H160.302V48.1675Z" fill="white"/>
<path d="M177.817 53.3197C177.817 55.7561 177.12 57.7565 175.729 59.3208C174.27 60.9314 172.334 61.7342 169.921 61.7342C167.595 61.7342 165.743 60.9628 164.363 59.4199C162.982 57.8771 162.291 55.9296 162.291 53.5823C162.291 51.126 163.001 49.114 164.427 47.5497C165.849 45.9838 167.769 45.2008 170.182 45.2008C172.508 45.2008 174.379 45.9722 175.792 47.5167C177.143 49.0149 177.817 50.9493 177.817 53.3197ZM174.163 53.4336C174.163 51.9717 173.851 50.718 173.218 49.6724C172.48 48.4071 171.424 47.776 170.056 47.776C168.641 47.776 167.565 48.4087 166.827 49.6724C166.194 50.7196 165.882 51.9932 165.882 53.4997C165.882 54.9616 166.194 56.2154 166.827 57.2593C167.589 58.5246 168.652 59.1557 170.025 59.1557C171.37 59.1557 172.425 58.5114 173.187 57.2263C173.836 56.1608 174.163 54.8939 174.163 53.4336Z" fill="white"/>
<path d="M189.264 48.6219C188.916 48.5574 188.544 48.5244 188.154 48.5244C186.915 48.5244 185.957 48.9919 185.283 49.9285C184.697 50.7544 184.403 51.7984 184.403 53.0587V61.3758H180.883L180.916 50.5165C180.916 48.6896 180.871 47.0262 180.784 45.5263H183.851L183.98 48.5591H184.077C184.449 47.5168 185.035 46.6776 185.838 46.0483C186.623 45.4817 187.47 45.1992 188.384 45.1992C188.709 45.1992 189.003 45.2223 189.264 45.2636V48.6219Z" fill="white"/>
<path d="M205.015 52.7002C205.015 53.3312 204.973 53.8631 204.886 54.2976H194.321C194.362 55.8635 194.872 57.0611 195.853 57.887C196.744 58.6254 197.895 58.9954 199.309 58.9954C200.873 58.9954 202.301 58.746 203.584 58.2455L204.136 60.6902C202.636 61.3444 200.865 61.6698 198.822 61.6698C196.364 61.6698 194.435 60.9463 193.03 59.5009C191.63 58.0555 190.928 56.1146 190.928 53.6798C190.928 51.2895 191.58 49.2991 192.887 47.7116C194.254 46.0168 196.103 45.1694 198.429 45.1694C200.713 45.1694 202.443 46.0168 203.617 47.7116C204.547 49.0579 205.015 50.723 205.015 52.7002ZM201.656 51.7868C201.68 50.7428 201.45 49.8409 200.973 49.0794C200.363 48.0998 199.426 47.6109 198.166 47.6109C197.015 47.6109 196.078 48.0883 195.363 49.0463C194.776 49.8078 194.428 50.7213 194.321 51.7851H201.656V51.7868Z" fill="white"/>
<path d="M84.2544 25.8693C84.2544 27.8136 83.6713 29.2771 82.5067 30.26C81.4281 31.1668 79.8951 31.6211 77.9096 31.6211C76.9251 31.6211 76.0827 31.5781 75.3773 31.4922V20.8692C76.2974 20.7205 77.2885 20.6445 78.3589 20.6445C80.2503 20.6445 81.6758 21.0558 82.6372 21.8785C83.7142 22.8085 84.2544 24.1382 84.2544 25.8693ZM82.4291 25.9172C82.4291 24.6569 82.0954 23.6905 81.4281 23.0166C80.7607 22.3443 79.7861 22.0073 78.5026 22.0073C77.9575 22.0073 77.4933 22.0436 77.1085 22.1196V30.1955C77.3215 30.2286 77.7114 30.2434 78.278 30.2434C79.6028 30.2434 80.6253 29.8751 81.3455 29.1384C82.0657 28.4016 82.4291 27.3279 82.4291 25.9172Z" fill="white"/>
<path d="M93.9326 27.5675C93.9326 28.7651 93.5907 29.7463 92.9068 30.5161C92.1899 31.3073 91.2401 31.7021 90.0541 31.7021C88.911 31.7021 88.0008 31.3238 87.3219 30.564C86.6446 29.8058 86.306 28.8494 86.306 27.6964C86.306 26.4905 86.6545 25.5011 87.3549 24.7329C88.0553 23.9648 88.9969 23.58 90.1829 23.58C91.326 23.58 92.2444 23.9582 92.9398 24.7164C93.6006 25.4532 93.9326 26.4046 93.9326 27.5675ZM92.137 27.6237C92.137 26.9051 91.9818 26.289 91.6729 25.7753C91.3095 25.1542 90.7924 24.8436 90.1201 24.8436C89.4247 24.8436 88.8961 25.1542 88.5327 25.7753C88.2221 26.289 88.0685 26.915 88.0685 27.6551C88.0685 28.3736 88.2238 28.9898 88.5327 29.5035C88.9077 30.1246 89.4297 30.4351 90.1036 30.4351C90.7643 30.4351 91.283 30.1196 91.6563 29.487C91.9768 28.9633 92.137 28.3422 92.137 27.6237Z" fill="white"/>
<path d="M106.91 23.7385L104.473 31.5254H102.887L101.878 28.144C101.622 27.2999 101.414 26.4608 101.252 25.6282H101.221C101.07 26.4839 100.862 27.3214 100.594 28.144L99.5224 31.5254H97.9185L95.6274 23.7385H97.4064L98.2869 27.4403C98.4999 28.3158 98.675 29.15 98.8155 29.9396H98.8468C98.9757 29.2887 99.1888 28.4595 99.4894 27.4568L100.594 23.7402H102.005L103.064 27.3776C103.32 28.2646 103.528 29.1186 103.688 29.9412H103.736C103.854 29.1401 104.03 28.2861 104.265 27.3776L105.21 23.7402H106.91V23.7385Z" fill="white"/>
<path d="M115.884 31.5253H114.153V27.0653C114.153 25.691 113.631 25.0038 112.584 25.0038C112.07 25.0038 111.655 25.1921 111.333 25.5704C111.014 25.9487 110.853 26.3947 110.853 26.9051V31.5237H109.121V25.9635C109.121 25.2797 109.1 24.538 109.059 23.7352H110.58L110.661 24.9526H110.709C110.91 24.5743 111.211 24.2621 111.606 24.0127C112.075 23.722 112.6 23.575 113.175 23.575C113.902 23.575 114.506 23.8095 114.987 24.2803C115.585 24.8568 115.884 25.7174 115.884 26.8605V31.5253V31.5253Z" fill="white"/>
<path d="M120.658 31.5253H118.928V20.1655H120.658V31.5253Z" fill="white"/>
<path d="M130.85 27.5675C130.85 28.7651 130.508 29.7463 129.824 30.5161C129.107 31.3073 128.156 31.7021 126.971 31.7021C125.827 31.7021 124.916 31.3238 124.239 30.564C123.562 29.8058 123.223 28.8494 123.223 27.6964C123.223 26.4905 123.572 25.5011 124.272 24.7329C124.973 23.9648 125.914 23.58 127.098 23.58C128.243 23.58 129.16 23.9582 129.857 24.7164C130.518 25.4532 130.85 26.4046 130.85 27.5675ZM129.053 27.6237C129.053 26.9051 128.897 26.289 128.588 25.7753C128.227 25.1542 127.708 24.8436 127.037 24.8436C126.34 24.8436 125.812 25.1542 125.45 25.7753C125.139 26.289 124.986 26.915 124.986 27.6551C124.986 28.3736 125.141 28.9898 125.45 29.5035C125.825 30.1246 126.347 30.4351 127.021 30.4351C127.682 30.4351 128.199 30.1196 128.572 29.487C128.894 28.9633 129.053 28.3422 129.053 27.6237Z" fill="white"/>
<path d="M139.228 31.5254H137.674L137.545 30.6284H137.497C136.965 31.3437 136.207 31.7021 135.222 31.7021C134.487 31.7021 133.893 31.4659 133.445 30.9968C133.039 30.5706 132.835 30.0403 132.835 29.411C132.835 28.4595 133.232 27.7344 134.03 27.2322C134.826 26.73 135.946 26.4839 137.388 26.4955V26.3501C137.388 25.3243 136.849 24.8122 135.771 24.8122C135.003 24.8122 134.325 25.0055 133.741 25.3887L133.389 24.2523C134.112 23.8046 135.006 23.58 136.06 23.58C138.095 23.58 139.116 24.6537 139.116 26.8011V29.6687C139.116 30.4467 139.154 31.0661 139.228 31.5254ZM137.431 28.8494V27.6485C135.521 27.6154 134.566 28.1391 134.566 29.2177C134.566 29.6241 134.675 29.928 134.898 30.1312C135.121 30.3344 135.406 30.4351 135.744 30.4351C136.124 30.4351 136.479 30.3146 136.803 30.075C137.128 29.8339 137.328 29.5283 137.403 29.1533C137.421 29.0691 137.431 28.9666 137.431 28.8494Z" fill="white"/>
<path d="M149.065 31.5253H147.529L147.448 30.2749H147.4C146.909 31.2263 146.073 31.7021 144.899 31.7021C143.961 31.7021 143.179 31.3337 142.56 30.597C141.94 29.8602 141.631 28.9038 141.631 27.7294C141.631 26.469 141.967 25.4481 142.641 24.6685C143.293 23.9417 144.093 23.5783 145.044 23.5783C146.09 23.5783 146.822 23.9301 147.238 24.6354H147.271V20.1655H149.004V29.4275C149.004 30.1857 149.023 30.8844 149.065 31.5253ZM147.271 28.2414V26.9431C147.271 26.7184 147.254 26.5367 147.223 26.398C147.126 25.9817 146.916 25.6315 146.597 25.349C146.275 25.0666 145.887 24.9245 145.439 24.9245C144.793 24.9245 144.288 25.1805 143.916 25.6943C143.548 26.208 143.361 26.8638 143.361 27.6649C143.361 28.4347 143.538 29.0591 143.893 29.5398C144.268 30.0519 144.773 30.3079 145.406 30.3079C145.974 30.3079 146.428 30.0948 146.774 29.667C147.107 29.2722 147.271 28.7965 147.271 28.2414Z" fill="white"/>
<path d="M163.87 27.5675C163.87 28.7651 163.528 29.7463 162.845 30.5161C162.128 31.3073 161.18 31.7021 159.992 31.7021C158.85 31.7021 157.94 31.3238 157.26 30.564C156.582 29.8058 156.244 28.8494 156.244 27.6964C156.244 26.4905 156.592 25.5011 157.293 24.7329C157.993 23.9648 158.935 23.58 160.122 23.58C161.264 23.58 162.184 23.9582 162.878 24.7164C163.538 25.4532 163.87 26.4046 163.87 27.5675ZM162.076 27.6237C162.076 26.9051 161.921 26.289 161.612 25.7753C161.247 25.1542 160.732 24.8436 160.058 24.8436C159.364 24.8436 158.836 25.1542 158.47 25.7753C158.16 26.289 158.006 26.915 158.006 27.6551C158.006 28.3736 158.162 28.9898 158.47 29.5035C158.845 30.1246 159.367 30.4351 160.041 30.4351C160.702 30.4351 161.222 30.1196 161.596 29.487C161.915 28.9633 162.076 28.3422 162.076 27.6237Z" fill="white"/>
<path d="M173.179 31.5253H171.449V27.0653C171.449 25.691 170.927 25.0038 169.878 25.0038C169.364 25.0038 168.95 25.1921 168.629 25.5704C168.309 25.9487 168.149 26.3947 168.149 26.9051V31.5237H166.416V25.9635C166.416 25.2797 166.396 24.538 166.355 23.7352H167.874L167.955 24.9526H168.003C168.206 24.5743 168.507 24.2621 168.9 24.0127C169.371 23.722 169.895 23.575 170.471 23.575C171.196 23.575 171.801 23.8095 172.282 24.2803C172.881 24.8568 173.179 25.7174 173.179 26.8605V31.5253V31.5253Z" fill="white"/>
<path d="M184.829 25.0352H182.923V28.8179C182.923 29.7793 183.261 30.26 183.932 30.26C184.243 30.26 184.5 30.2335 184.704 30.179L184.748 31.4923C184.406 31.6211 183.957 31.6855 183.403 31.6855C182.72 31.6855 182.188 31.4774 181.803 31.0611C181.416 30.6449 181.225 29.9445 181.225 28.9616V25.0352H180.087V23.7385H181.225V22.3113L182.921 21.7992V23.7368H184.827V25.0352H184.829Z" fill="white"/>
<path d="M193.993 31.5253H192.261V27.0984C192.261 25.7025 191.739 25.0038 190.693 25.0038C189.89 25.0038 189.342 25.4085 189.041 26.2179C188.99 26.3881 188.96 26.5962 188.96 26.8407V31.5237H187.231V20.1655H188.96V24.8584H188.993C189.538 24.0044 190.32 23.5783 191.332 23.5783C192.049 23.5783 192.642 23.8128 193.113 24.2836C193.699 24.87 193.993 25.7422 193.993 26.8952V31.5253V31.5253Z" fill="white"/>
<path d="M203.447 27.2636C203.447 27.5741 203.424 27.8351 203.383 28.0482H198.191C198.214 28.818 198.462 29.4044 198.942 29.8107C199.382 30.1741 199.948 30.3558 200.642 30.3558C201.41 30.3558 202.111 30.2336 202.742 29.9875L203.013 31.19C202.274 31.5105 201.405 31.6707 200.399 31.6707C199.194 31.6707 198.244 31.3155 197.557 30.6053C196.866 29.895 196.524 28.9418 196.524 27.7459C196.524 26.5714 196.843 25.5935 197.485 24.8139C198.156 23.9813 199.063 23.5651 200.208 23.5651C201.328 23.5651 202.178 23.9813 202.753 24.8139C203.217 25.4746 203.447 26.2923 203.447 27.2636ZM201.795 26.8159C201.808 26.3022 201.694 25.8595 201.46 25.4862C201.159 25.0055 200.702 24.7643 200.082 24.7643C199.517 24.7643 199.056 24.9989 198.705 25.4696C198.417 25.8446 198.247 26.2923 198.191 26.8159H201.795Z" fill="white"/>
</svg>
