<svg width="40" height="41" viewBox="0 0 40 41" fill="none" xmlns="http://www.w3.org/2000/svg">
<g clip-path="url(#clip0_131_2263)">
<path d="M37.6562 19.9791V15.2632C37.6562 12.9463 35.8127 11.053 33.5156 10.9703V8.07572C33.5156 6.56798 32.289 5.34134 30.7812 5.34134H23.2533L22.2812 2.63923C22.0333 1.95017 21.5316 1.39954 20.8684 1.08884C20.2053 0.77806 19.4611 0.744935 18.773 0.995404L5.1125 5.96736C4.42516 6.21751 3.8768 6.72056 3.56836 7.38384C3.25992 8.04712 3.22859 8.79064 3.48023 9.47751L4.02906 10.9756C1.78414 11.1144 0 12.9839 0 15.2632V36.5132C0 38.8825 1.92758 40.8101 4.29688 40.8101H33.3594C35.7287 40.8101 37.6562 38.8825 37.6562 36.5132V31.6411C38.9795 31.451 40 30.3102 40 28.9351V22.6851C40 21.31 38.9795 20.1692 37.6562 19.9791ZM37.6562 28.9351C37.6562 29.1505 37.481 29.3257 37.2656 29.3257H31.0156C29.0771 29.3257 27.5 27.7486 27.5 25.8101C27.5 23.8716 29.0771 22.2945 31.0156 22.2945H37.2656C37.481 22.2945 37.6562 22.4697 37.6562 22.6851V28.9351ZM5.68094 8.67126C5.63242 8.53884 5.66797 8.42704 5.69352 8.37212C5.71906 8.31728 5.78164 8.21798 5.91414 8.16978L19.5746 3.19783C19.7073 3.14962 19.8191 3.18548 19.874 3.21119C19.9289 3.23689 20.028 3.29986 20.0758 3.43267L20.7625 5.34142H20.2344C18.7266 5.34142 17.5 6.56806 17.5 8.07579V10.9664H6.5218L5.68094 8.67126ZM31.1719 8.07572V10.9663H19.8438V8.07572C19.8438 7.86033 20.019 7.68509 20.2344 7.68509H30.7812C30.9966 7.68509 31.1719 7.86033 31.1719 8.07572ZM33.3594 38.4663H4.29688C3.21992 38.4663 2.34375 37.5902 2.34375 36.5132V15.2632C2.34375 14.1863 3.21992 13.3101 4.29688 13.3101H33.3594C34.4363 13.3101 35.3125 14.1863 35.3125 15.2632V19.9507H31.0156C27.7848 19.9507 25.1562 22.5792 25.1562 25.8101C25.1562 29.041 27.7848 31.6695 31.0156 31.6695H35.3125V36.5132C35.3125 37.5902 34.4363 38.4663 33.3594 38.4663Z" fill="#23322B"/>
<path d="M31.0156 26.9821C31.6628 26.9821 32.1875 26.4574 32.1875 25.8102C32.1875 25.163 31.6628 24.6383 31.0156 24.6383C30.3684 24.6383 29.8438 25.163 29.8438 25.8102C29.8438 26.4574 30.3684 26.9821 31.0156 26.9821Z" fill="#23322B"/>
</g>
<defs>
<clipPath id="clip0_131_2263">
<rect width="40" height="40" fill="white" transform="translate(0 0.81958)"/>
</clipPath>
</defs>
</svg>
