<svg width="32" height="32" viewBox="0 0 32 32" fill="none" xmlns="http://www.w3.org/2000/svg">
<path d="M31 13.5V18.5C31 19.8789 29.8789 21 28.5 21H27.8193C26.8633 26.666 21.9346 31 16 31C15.4473 31 15 30.5527 15 30C15 29.4473 15.4473 29 16 29C21.5137 29 26 24.5137 26 19V13C26 7.48633 21.5137 3 16 3C10.4863 3 6 7.48633 6 13V20C6 20.5527 5.55273 21 5 21H3.5C2.12109 21 1 19.8789 1 18.5V13.5C1 12.1211 2.12109 11 3.5 11H4.18066C5.13672 5.33398 10.0654 1 16 1C21.9346 1 26.8633 5.33398 27.8193 11H28.5C29.8789 11 31 12.1211 31 13.5ZM16 5C11.5889 5 8 8.58887 8 13V18C8 22.4111 11.5889 26 16 26C20.4111 26 24 22.4111 24 18V13C24 8.58887 20.4111 5 16 5Z" fill="white"/>
</svg>
