<svg width="40" height="41" viewBox="0 0 40 41" fill="none" xmlns="http://www.w3.org/2000/svg">
<path d="M35.625 7.06958H4.375C1.96266 7.06958 0 9.03224 0 11.4446V30.1946C0 32.6069 1.96266 34.5696 4.375 34.5696H35.625C38.0373 34.5696 40 32.6069 40 30.1946V11.4446C40 9.03224 38.0373 7.06958 35.625 7.06958ZM4.375 9.56958H35.625C36.6588 9.56958 37.5 10.4108 37.5 11.4446V13.9446H2.5V11.4446C2.5 10.4108 3.34117 9.56958 4.375 9.56958ZM35.625 32.0696H4.375C3.34117 32.0696 2.5 31.2284 2.5 30.1946V16.4446H37.5V30.1946C37.5 31.2284 36.6588 32.0696 35.625 32.0696Z" fill="#23322B"/>
<path d="M8.75 28.3196H7.5C6.80969 28.3196 6.25 27.7599 6.25 27.0696V25.8196C6.25 25.1293 6.80969 24.5696 7.5 24.5696H8.75C9.44031 24.5696 10 25.1293 10 25.8196V27.0696C10 27.7599 9.44031 28.3196 8.75 28.3196Z" fill="#23322B"/>
</svg>
