<svg width="40" height="41" viewBox="0 0 40 41" fill="none" xmlns="http://www.w3.org/2000/svg">
<path d="M36 8.01956C35.9974 7.85507 35.9442 7.69538 35.8475 7.56224C35.7509 7.42911 35.6156 7.329 35.46 7.27556L20.26 2.07556C20.0919 2.01542 19.9081 2.01542 19.74 2.07556L4.53999 7.27556C4.38441 7.329 4.24908 7.42911 4.15245 7.56224C4.05582 7.69538 4.00259 7.85507 3.99999 8.01956L3.95999 10.3796C3.83999 17.6476 4.42799 22.8636 5.76399 26.3316C6.76572 28.9428 8.2763 31.329 10.208 33.3516C12.5188 35.7016 15.2572 37.5888 18.276 38.9116L19.668 39.5476C19.7722 39.5951 19.8854 39.6197 20 39.6197C20.1145 39.6197 20.2278 39.5951 20.332 39.5476L21.724 38.9116C24.7428 37.5888 27.4812 35.7016 29.792 33.3516C31.7256 31.3282 33.2375 28.9406 34.24 26.3276C35.576 22.8596 36.164 17.6436 36.044 10.3756L36 8.01956ZM32.748 25.7516C31.8224 28.1685 30.4245 30.3768 28.636 32.2476C26.464 34.4446 23.8944 36.2092 21.064 37.4476L20 37.9396L18.936 37.4556C16.1055 36.2172 13.536 34.4526 11.364 32.2556C9.57459 30.3825 8.17667 28.1713 7.25199 25.7516C5.99999 22.4796 5.43599 17.4596 5.55599 10.4196L5.58399 8.61956L20 3.66356L34.4 8.60356L34.428 10.4036C34.564 17.4596 34 22.4796 32.748 25.7516Z" fill="#23322B"/>
<path d="M32 10.8196C31.9982 10.6544 31.9454 10.4939 31.8487 10.3599C31.752 10.226 31.6162 10.1253 31.46 10.0716L20.26 6.23161C20.0912 6.17548 19.9088 6.17548 19.74 6.23161L8.54001 10.0716C8.38379 10.1253 8.24801 10.226 8.15133 10.3599C8.05464 10.4939 8.00178 10.6544 8.00001 10.8196V10.8956C7.89201 17.2396 8.40001 22.0716 9.48401 24.8716C10.2768 26.9468 11.4763 28.8425 13.012 30.4476C14.9054 32.3721 17.148 33.9184 19.62 35.0036L19.668 35.0236C19.7712 35.0746 19.8849 35.1006 20 35.0996C20.1146 35.0997 20.2278 35.0751 20.332 35.0276L20.38 35.0036C22.8536 33.924 25.0989 32.3832 26.996 30.4636C28.5317 28.8585 29.7312 26.9628 30.524 24.8876C31.6 22.0876 32.124 17.2556 32.008 10.9156L32 10.8196ZM29.02 24.2996C28.2993 26.1758 27.2114 27.8893 25.82 29.3396C24.1467 31.0441 22.1738 32.4258 20 33.4156C17.8204 32.4327 15.8406 31.0564 14.16 29.3556C12.7686 27.9052 11.6807 26.1918 10.96 24.3156C10 21.7716 9.51201 17.3236 9.60001 11.4196L20 7.85161L30.4 11.4196C30.488 17.3196 30 21.7716 29.028 24.3156L29.02 24.2996Z" fill="#23322B"/>
<path d="M23.756 16.9516L18.052 22.6556L16.244 20.8476C16.1697 20.7733 16.0814 20.7143 15.9843 20.6741C15.8872 20.6339 15.7831 20.6132 15.678 20.6132C15.5729 20.6132 15.4688 20.6339 15.3717 20.6741C15.2746 20.7143 15.1863 20.7733 15.112 20.8476C15.0377 20.9219 14.9787 21.0102 14.9385 21.1073C14.8983 21.2044 14.8776 21.3085 14.8776 21.4136C14.8776 21.5187 14.8983 21.6228 14.9385 21.7199C14.9787 21.817 15.0377 21.9053 15.112 21.9796L17.484 24.3516C17.5584 24.4265 17.6469 24.4859 17.7444 24.5264C17.8419 24.5669 17.9464 24.5877 18.052 24.5876C18.2638 24.5867 18.4667 24.5018 18.616 24.3516L24.888 18.0836C24.9623 18.0093 25.0213 17.921 25.0615 17.8239C25.1017 17.7268 25.1225 17.6227 25.1225 17.5176C25.1225 17.4125 25.1017 17.3084 25.0615 17.2113C25.0213 17.1142 24.9623 17.0259 24.888 16.9516C24.8137 16.8773 24.7254 16.8183 24.6283 16.7781C24.5312 16.7379 24.4271 16.7172 24.322 16.7172C24.2169 16.7172 24.1128 16.7379 24.0157 16.7781C23.9186 16.8183 23.8303 16.8773 23.756 16.9516Z" fill="#23322B"/>
</svg>
