<svg width="40" height="41" viewBox="0 0 40 41" fill="none" xmlns="http://www.w3.org/2000/svg">
<g clip-path="url(#clip0_185_2229)">
<path d="M39.3411 25.5337H36.7055C36.3411 25.5337 36.0466 25.8289 36.0466 26.1926H29.4576C29.2823 26.1926 29.1149 26.2618 28.9917 26.3857L25.2801 30.0972L12.2128 27.8247C11.5862 27.7166 10.9457 27.8879 10.4575 28.2984C9.97052 28.7083 9.69049 29.3092 9.69049 29.9464C9.69049 30.7087 10.0997 31.4216 10.7586 31.8064L25.1325 40.191C25.4679 40.3867 25.8422 40.4855 26.2171 40.4849C26.5465 40.4849 26.876 40.4091 27.1811 40.2569L34.2254 36.735H36.0466C36.0466 37.0987 36.3411 37.3939 36.7055 37.3939H39.3411C39.7055 37.3939 40 37.0987 40 36.735V26.1926C40 25.8289 39.7055 25.5337 39.3411 25.5337ZM36.0466 35.4172H34.0699C33.9678 35.4172 33.8663 35.441 33.7754 35.4864L26.5913 39.0788C26.337 39.2053 26.0398 39.1954 25.7967 39.0531L11.4234 30.6685C11.1671 30.5189 11.0083 30.2422 11.0083 29.9464C11.0083 29.6993 11.117 29.466 11.3061 29.3066C11.4952 29.1478 11.743 29.0812 11.9874 29.1227L24.1402 31.2365L23.6065 31.7702C23.1308 32.2466 22.8685 32.8798 22.8685 33.5532C22.8685 34.9448 24.0005 36.0761 25.3908 36.0761C26.0649 36.0761 26.6981 35.8139 27.1745 35.3368L30.5823 31.9297L29.6506 30.998L26.2428 34.4058C26.0181 34.6298 25.7084 34.7583 25.3908 34.7583C24.7266 34.7583 24.1863 34.218 24.1863 33.5532C24.1863 33.2317 24.3115 32.9286 24.5389 32.7012L29.7304 27.5104H36.0466V35.4172ZM38.6822 36.0761H37.3644V26.8515H38.6822V36.0761Z" fill="#23322B"/>
<path d="M23.5275 11.0378C21.3471 11.0378 19.574 12.8109 19.574 14.9913C19.574 17.1716 21.3471 18.9447 23.5275 18.9447C25.7078 18.9447 27.4809 17.1716 27.4809 14.9913C27.4809 12.8109 25.7078 11.0378 23.5275 11.0378ZM23.5275 17.6269C22.0739 17.6269 20.8918 16.4448 20.8918 14.9913C20.8918 13.5377 22.0739 12.3556 23.5275 12.3556C24.981 12.3556 26.1631 13.5377 26.1631 14.9913C26.1631 16.4448 24.981 17.6269 23.5275 17.6269Z" fill="#23322B"/>
<path d="M36.0466 1.1543H11.0083C10.6439 1.1543 10.3494 1.44949 10.3494 1.8132V4.44881V7.08442H5.07816C4.90289 7.08442 4.73553 7.1536 4.61232 7.27748L0 11.8898L0.931688 12.8215L5.35095 8.40223H10.3494V10.3789V12.3556H7.05487V13.6734H11.0083H15.6206C16.3474 13.6734 16.9384 14.2645 16.9384 14.9913C16.9384 15.3424 16.8014 15.6732 16.5516 15.9223C16.3019 16.1713 15.9711 16.3091 15.6206 16.3091H11.0083C10.92 16.3091 10.8343 16.3268 10.7546 16.3605C10.6742 16.3941 10.6024 16.4422 10.5418 16.5028L8.56573 18.4788L9.49742 19.4105L10.3494 18.5586V19.6036V22.2392H0.465844V23.557H11.0083H14.3028H32.7521H36.0466C36.411 23.557 36.7055 23.2618 36.7055 22.8981V19.6036V10.3789V7.08442V4.44881V1.8132C36.7055 1.44949 36.411 1.1543 36.0466 1.1543ZM11.6672 7.74332H13.5602C13.3217 8.66842 12.5916 9.39783 11.6672 9.63701V7.74332ZM11.6672 22.2392V20.3455C12.5916 20.5847 13.3217 21.3141 13.5602 22.2392H11.6672ZM35.3877 22.2392H33.4947C33.7332 21.3141 34.4632 20.5847 35.3877 20.3455V22.2392ZM35.3877 19.004C33.7358 19.2827 32.4318 20.5873 32.1525 22.2392H14.9024C14.6237 20.5873 13.3191 19.2833 11.6672 19.004V17.6269H15.6206C16.323 17.6269 16.9852 17.3521 17.4833 16.854C17.9821 16.3558 18.2562 15.6943 18.2562 14.9913C18.2562 13.5377 17.0741 12.3556 15.6206 12.3556H11.6672V10.9785C13.3191 10.6998 14.623 9.39519 14.9024 7.74332H32.1525C32.4312 9.39519 33.7358 10.6992 35.3877 10.9785V19.004ZM35.3877 9.63701C34.4632 9.39783 33.7332 8.66842 33.4947 7.74332H35.3877V9.63701ZM35.3877 6.42552H32.7521H14.3028H11.6672V5.10771H35.3877V6.42552ZM35.3877 3.78991H11.6672V2.4721H35.3877V3.78991Z" fill="#23322B"/>
</g>
<defs>
<clipPath id="clip0_185_2229">
<rect width="40" height="40" fill="white" transform="translate(0 0.81958)"/>
</clipPath>
</defs>
</svg>
