<svg width="40" height="41" viewBox="0 0 40 41" fill="none" xmlns="http://www.w3.org/2000/svg">
<path d="M23.125 23.9446V23.3196H21.875C21.7092 23.3196 21.5503 23.2537 21.4331 23.1365C21.3158 23.0193 21.25 22.8603 21.25 22.6946C21.25 22.5288 21.3158 22.3698 21.4331 22.2526C21.5503 22.1354 21.7092 22.0696 21.875 22.0696H24.0625C24.3111 22.0696 24.5496 21.9708 24.7254 21.795C24.9012 21.6192 25 21.3807 25 21.1321C25 20.8834 24.9012 20.645 24.7254 20.4692C24.5496 20.2934 24.3111 20.1946 24.0625 20.1946H23.4375C22.8849 20.1958 22.3525 19.9873 21.9476 19.6113C21.5426 19.2353 21.2954 18.7197 21.2558 18.1686C21.2161 17.6174 21.387 17.0718 21.7339 16.6417C22.0808 16.2116 22.5779 15.9291 23.125 15.8511V15.1946C23.125 15.0288 23.1908 14.8698 23.3081 14.7526C23.4253 14.6354 23.5842 14.5696 23.75 14.5696C23.9158 14.5696 24.0747 14.6354 24.1919 14.7526C24.3092 14.8698 24.375 15.0288 24.375 15.1946V15.8196H25.625C25.7908 15.8196 25.9497 15.8854 26.0669 16.0026C26.1842 16.1198 26.25 16.2788 26.25 16.4446C26.25 16.6103 26.1842 16.7693 26.0669 16.8865C25.9497 17.0037 25.7908 17.0696 25.625 17.0696H23.4375C23.1889 17.0696 22.9504 17.1684 22.7746 17.3442C22.5988 17.52 22.5 17.7584 22.5 18.0071C22.5 18.2557 22.5988 18.4942 22.7746 18.67C22.9504 18.8458 23.1889 18.9446 23.4375 18.9446H24.0625C24.6155 18.9428 25.1485 19.151 25.5539 19.5271C25.9593 19.9031 26.2068 20.419 26.2465 20.9706C26.2862 21.5221 26.115 22.0682 25.7676 22.4984C25.4202 22.9286 24.9225 23.2109 24.375 23.2883V23.9446C24.375 24.1103 24.3092 24.2693 24.1919 24.3865C24.0747 24.5037 23.9158 24.5696 23.75 24.5696C23.5842 24.5696 23.4253 24.5037 23.3081 24.3865C23.1908 24.2693 23.125 24.1103 23.125 23.9446ZM37.2131 32.8883L26.3648 38.6034C25.1867 39.224 23.8778 39.555 22.5464 39.5691C21.215 39.5833 19.8994 39.2801 18.7085 38.6846L8.75 33.7053V33.9446C8.74945 34.4417 8.55173 34.9183 8.20022 35.2698C7.84871 35.6213 7.37211 35.819 6.875 35.8196H1.875C1.70924 35.8196 1.55027 35.7537 1.43306 35.6365C1.31585 35.5193 1.25 35.3603 1.25 35.1946C1.25 35.0288 1.31585 34.8698 1.43306 34.7526C1.55027 34.6354 1.70924 34.5696 1.875 34.5696H6.875C7.04071 34.5694 7.1996 34.5035 7.31678 34.3864C7.43396 34.2692 7.49985 34.1103 7.5 33.9446V20.1946C7.49985 20.0289 7.43396 19.87 7.31678 19.7528C7.1996 19.6356 7.04071 19.5697 6.875 19.5696H1.875C1.70924 19.5696 1.55027 19.5037 1.43306 19.3865C1.31585 19.2693 1.25 19.1103 1.25 18.9446C1.25 18.7788 1.31585 18.6198 1.43306 18.5026C1.55027 18.3854 1.70924 18.3196 1.875 18.3196H6.875C7.37211 18.3201 7.84871 18.5178 8.20022 18.8694C8.55173 19.2209 8.74945 19.6975 8.75 20.1946H13.4485C14.9984 20.1966 16.5025 20.7203 17.7185 21.6814L25.0281 27.474C25.686 27.9956 26.1153 28.7525 26.2255 29.5848L35.235 27.5374C35.9158 27.3828 36.6295 27.4809 37.2433 27.8136C37.857 28.1462 38.3289 28.6907 38.571 29.3455C38.813 30.0003 38.8087 30.7207 38.5589 31.3726C38.3091 32.0245 37.8308 32.563 37.2131 32.8883ZM37.4158 29.8281C37.289 29.4444 37.0236 29.1218 36.6715 28.9235C36.3194 28.7252 35.9059 28.6654 35.5121 28.756L26.1464 30.8846C26.0179 31.3614 25.7829 31.8029 25.4591 32.1757C25.1352 32.5485 24.731 32.8429 24.2768 33.0368C23.8227 33.2307 23.3305 33.319 22.8372 33.295C22.344 33.271 21.8627 33.1355 21.4294 32.8985L14.075 28.8677C14.003 28.8283 13.9395 28.775 13.8881 28.7111C13.8367 28.6471 13.7984 28.5736 13.7754 28.4948C13.7524 28.416 13.7451 28.3335 13.754 28.2519C13.7629 28.1703 13.7878 28.0912 13.8272 28.0193C13.9068 27.8739 14.041 27.7661 14.2001 27.7196C14.2789 27.6966 14.3614 27.6894 14.443 27.6983C14.5246 27.7071 14.6036 27.732 14.6756 27.7715L22.03 31.8023C22.4402 32.0262 22.9154 32.1009 23.3746 32.0138C23.8338 31.9268 24.2485 31.6832 24.5483 31.3246C24.7206 31.1181 24.8499 30.8791 24.9284 30.6218C25.0069 30.3645 25.0331 30.0941 25.0055 29.8266C24.9778 29.559 24.8969 29.2996 24.7674 29.0638C24.638 28.828 24.4626 28.6205 24.2517 28.4536L16.9421 22.661C15.9472 21.8747 14.7166 21.4462 13.4485 21.4446H8.75V32.3076L19.2676 37.5664C20.2837 38.0637 21.402 38.3164 22.5332 38.3045C23.6644 38.2925 24.7771 38.0162 25.7825 37.4976L36.6309 31.7827C36.973 31.6038 37.24 31.3086 37.3839 30.9504C37.5278 30.5921 37.5391 30.1939 37.4158 29.8281ZM25.8063 26.4958C25.914 26.5811 26.0473 26.6276 26.1847 26.6277C26.2971 26.6275 26.4074 26.5969 26.5039 26.5392C27.7489 26.048 28.8396 25.2325 29.6629 24.1774C30.4862 23.1222 31.0121 21.8658 31.1858 20.5388C31.3595 19.2118 31.1747 17.8624 30.6507 16.6309C30.1267 15.3994 29.2826 14.3306 28.2059 13.5355C27.1293 12.7405 25.8595 12.2482 24.5283 12.1097C23.1971 11.9713 21.8531 12.1917 20.6359 12.7482C19.4187 13.3047 18.3727 14.1768 17.6065 15.2742C16.8403 16.3715 16.3818 17.6539 16.2787 18.9883C16.2721 19.0703 16.2817 19.1529 16.307 19.2312C16.3323 19.3095 16.3729 19.382 16.4263 19.4445C16.4797 19.5071 16.545 19.5585 16.6184 19.5958C16.6917 19.6331 16.7717 19.6556 16.8537 19.6619C16.9358 19.6682 17.0183 19.6582 17.0965 19.6326C17.1746 19.607 17.247 19.5661 17.3094 19.5124C17.3717 19.4588 17.4229 19.3933 17.4599 19.3198C17.4969 19.2463 17.519 19.1662 17.525 19.0841C17.6112 17.9682 17.9957 16.8959 18.6381 15.9795C19.2806 15.063 20.1576 14.3359 21.1772 13.8744C22.1969 13.4128 23.3218 13.2337 24.4344 13.3557C25.547 13.4778 26.6063 13.8965 27.5017 14.5681C28.3971 15.2397 29.0955 16.1396 29.5241 17.1736C29.9526 18.2075 30.0955 19.3376 29.9377 20.4457C29.78 21.5538 29.3274 22.5992 28.6273 23.4725C27.9273 24.3458 27.0055 25.0149 25.9582 25.41C25.8547 25.4492 25.7635 25.5153 25.6939 25.6013C25.6242 25.6874 25.5787 25.7904 25.562 25.8998C25.5452 26.0092 25.5578 26.1211 25.5985 26.2241C25.6391 26.327 25.7064 26.4173 25.7934 26.4858L25.8063 26.4958ZM8.8875 13.0855C8.83464 13.0195 8.79572 12.9435 8.77308 12.8621C8.75045 12.7806 8.74457 12.6954 8.75581 12.6116C8.76705 12.5278 8.79518 12.4472 8.83848 12.3746C8.88179 12.302 8.93937 12.2389 9.00775 12.1892L22.2522 2.55708C22.6898 2.24591 23.2134 2.07871 23.7503 2.07871C24.2872 2.07871 24.8109 2.24591 25.2484 2.55708L28.75 5.10364V2.69458C28.75 2.52882 28.8158 2.36985 28.9331 2.25264C29.0503 2.13543 29.2092 2.06958 29.375 2.06958H34.375C34.5408 2.06958 34.6997 2.13543 34.8169 2.25264C34.9342 2.36985 35 2.52882 35 2.69458V9.64921L38.4924 12.1892C38.5608 12.2389 38.6184 12.302 38.6617 12.3746C38.705 12.4472 38.7331 12.5278 38.7444 12.6116C38.7556 12.6954 38.7497 12.7806 38.7271 12.8621C38.7045 12.9435 38.6655 13.0195 38.6127 13.0855L36.8002 15.348C36.6997 15.4733 36.5548 15.5551 36.3955 15.5764C36.2363 15.5978 36.075 15.5569 35.9451 15.4625L35 14.7753V25.8196C35 25.9853 34.9342 26.1443 34.8169 26.2615C34.6997 26.3787 34.5408 26.4446 34.375 26.4446C34.2092 26.4446 34.0503 26.3787 33.9331 26.2615C33.8158 26.1443 33.75 25.9853 33.75 25.8196V13.8661L23.75 6.59227L13.75 13.8661V18.3196C13.75 18.4853 13.6842 18.6443 13.5669 18.7615C13.4497 18.8787 13.2908 18.9446 13.125 18.9446C12.9592 18.9446 12.8003 18.8787 12.6831 18.7615C12.5658 18.6443 12.5 18.4853 12.5 18.3196V14.7753L11.5552 15.4628C11.4253 15.5572 11.2639 15.5981 11.1047 15.5768C10.9455 15.5555 10.8006 15.4736 10.7001 15.3483L8.8875 13.0855ZM30 6.01271L33.75 8.74008V3.31958H30V6.01271ZM10.2722 12.8148L11.3025 14.1008L23.3826 5.31421C23.4893 5.23646 23.618 5.19458 23.75 5.19458C23.882 5.19458 24.0107 5.23646 24.1174 5.31421L36.1975 14.1008L37.2278 12.8148L24.5129 3.5677C24.2902 3.40932 24.0237 3.32422 23.7504 3.32422C23.4772 3.32422 23.2106 3.40932 22.9879 3.5677L10.2722 12.8148Z" fill="#23322B"/>
</svg>
