<svg width="243" height="86" viewBox="0 0 243 86" fill="none" xmlns="http://www.w3.org/2000/svg">
<rect x="1.01459" y="1.51135" width="240.049" height="82.9774" rx="7" fill="#2B2B33"/>
<rect x="1.01459" y="1.51135" width="240.049" height="82.9774" rx="7" stroke="#999999" stroke-width="2"/>
<path d="M41.763 42.0477L24.1782 60.7128C24.1788 60.7167 24.1801 60.7199 24.1808 60.7238C24.7201 62.7507 26.5713 64.243 28.7684 64.243C29.6466 64.243 30.4712 64.0056 31.1784 63.5887L31.2345 63.5558L51.0295 52.1333L41.7639 42.0475" fill="#EB3131"/>
<path d="M59.5549 38.8698L59.5381 38.8582L50.992 33.9039L41.3637 42.4716L51.0254 52.1321L59.5264 47.2271C61.0168 46.4225 62.0286 44.8512 62.0286 43.0394C62.0286 41.2405 61.0304 39.6772 59.5548 38.8699" fill="#F6B60B"/>
<path d="M41.8928 43L50.9953 33.9003L31.2227 22.4363C30.504 22.0059 29.6651 21.7574 28.7676 21.7574C26.5705 21.7574 24.7168 23.2525 24.1774 25.2817C24.1767 25.2837 24.1767 25.2851 24.1767 25.2868L41.8928 43.0004" fill="#29BA38"/>
<path d="M24.1759 25.2867C24.0702 25.6766 24.0146 26.0849 24.0146 26.5089V59.4919C24.0146 59.9151 24.0695 60.3248 24.1765 60.7132L42.3684 42.5251L24.1765 25.2872" fill="#0052B4"/>
<path d="M186.873 58.7565H189.955V38.1054H186.873V58.7565ZM214.635 45.5449L211.102 54.4977H210.997L207.33 45.5449H204.009L209.51 58.0577L206.373 65.0184H209.588L218.063 45.5456L214.635 45.5449ZM197.155 56.4107C196.147 56.4107 194.738 55.9055 194.738 54.657C194.738 53.0631 196.492 52.4521 198.005 52.4521C199.36 52.4521 199.999 52.7438 200.822 53.1426C200.582 55.0557 198.935 56.4106 197.155 56.4106L197.155 56.4107ZM197.528 45.0932C195.296 45.0932 192.985 46.0766 192.029 48.255L194.765 49.3971C195.349 48.255 196.438 47.8834 197.581 47.8834C199.175 47.8834 200.795 48.839 200.822 50.5398V50.7521C200.263 50.4333 199.067 49.9553 197.607 49.9553C194.657 49.9553 191.656 51.5753 191.656 54.6041C191.656 57.367 194.074 59.1472 196.783 59.1472C198.854 59.1472 199.999 58.2174 200.714 57.1277H200.822V58.7226H203.798V50.8049C203.798 47.1386 201.06 45.0932 197.528 45.0932V45.0932ZM178.479 48.0588H174.095V40.9806H178.479C180.783 40.9806 182.091 42.888 182.091 44.5196C182.091 46.1199 180.783 48.0588 178.479 48.0588ZM178.4 38.1059H171.014V58.757H174.095V50.9335H178.4C181.816 50.9335 185.174 48.4609 185.174 44.5204C185.174 40.5806 181.816 38.1068 178.4 38.1068L178.4 38.1059ZM138.127 56.4142C135.998 56.4142 134.215 54.6307 134.215 52.1834C134.215 49.7076 135.998 47.899 138.127 47.899C140.229 47.899 141.879 49.7077 141.879 52.1834C141.879 54.6307 140.229 56.4142 138.127 56.4142ZM141.666 46.701H141.56C140.868 45.8762 139.537 45.131 137.861 45.131C134.348 45.131 131.128 48.2185 131.128 52.1834C131.128 56.1213 134.348 59.1816 137.861 59.1816C139.537 59.1816 140.868 58.4363 141.56 57.5853H141.666V58.5958C141.666 61.2845 140.229 62.7208 137.914 62.7208C136.025 62.7208 134.854 61.3638 134.375 60.2197L131.688 61.3372C132.459 63.1993 134.507 65.4888 137.914 65.4888C141.534 65.4888 144.594 63.3594 144.594 58.1698V45.5566H141.666L141.666 46.701ZM146.724 58.7558H149.809V38.1048H146.724V58.7558ZM154.36 51.9434C154.281 49.2289 156.463 47.8454 158.033 47.8454C159.257 47.8454 160.294 48.4578 160.641 49.3353L154.36 51.9434ZM163.94 49.6012C163.355 48.032 161.572 45.131 157.926 45.131C154.306 45.131 151.3 47.9784 151.3 52.1564C151.3 56.095 154.281 59.1818 158.271 59.1818C161.491 59.1818 163.355 57.2132 164.127 56.0684L161.732 54.4715C160.933 55.6426 159.843 56.4143 158.271 56.4143C156.702 56.4143 155.584 55.6956 154.867 54.2852L164.259 50.4002L163.94 49.6012ZM89.0998 47.2867V50.2671H96.2315C96.0186 51.9436 95.4598 53.1675 94.608 54.0192C93.5699 55.0567 91.9465 56.2014 89.0997 56.2014C84.7087 56.2014 81.2761 52.6622 81.2761 48.2714C81.2761 43.8805 84.7087 40.3409 89.0997 40.3409C91.4682 40.3409 93.1976 41.2725 94.475 42.47L96.5779 40.3673C94.7944 38.6644 92.4264 37.3605 89.0997 37.3605C83.0846 37.3605 78.0286 42.2571 78.0286 48.2714C78.0286 54.2851 83.0846 59.1818 89.0997 59.1818C92.3458 59.1818 94.7945 58.1172 96.7102 56.1215C98.6795 54.1521 99.2918 51.3847 99.2918 49.149C99.2918 48.4579 99.2381 47.8192 99.1317 47.2867H89.0998ZM107.401 56.4142C105.271 56.4142 103.435 54.6578 103.435 52.1564C103.435 49.6283 105.271 47.8991 107.401 47.8991C109.529 47.8991 111.366 49.6283 111.366 52.1564C111.366 54.6578 109.529 56.4142 107.401 56.4142ZM107.401 45.131C103.514 45.131 100.348 48.0848 100.348 52.1564C100.348 56.2014 103.514 59.1818 107.401 59.1818C111.286 59.1818 114.452 56.2014 114.452 52.1564C114.452 48.0848 111.286 45.131 107.401 45.131V45.131ZM122.784 56.4142C120.656 56.4142 118.819 54.6578 118.819 52.1564C118.819 49.6283 120.656 47.8991 122.784 47.8991C124.913 47.8991 126.749 49.6283 126.749 52.1564C126.749 54.6578 124.913 56.4142 122.784 56.4142ZM122.784 45.131C118.899 45.131 115.733 48.0848 115.733 52.1564C115.733 56.2014 118.899 59.1818 122.784 59.1818C126.67 59.1818 129.837 56.2014 129.837 52.1564C129.837 48.0848 126.67 45.131 122.784 45.131" fill="white"/>
<path d="M88.5216 25.3582H83.7029V26.5507H87.3138C87.2157 27.5237 86.8285 28.2877 86.1755 28.8426C85.5226 29.3976 84.6889 29.6763 83.703 29.6763C82.6215 29.6763 81.7052 29.2995 80.9544 28.5511C80.2186 27.7871 79.8445 26.8424 79.8445 25.7042C79.8445 24.5661 80.2186 23.6214 80.9544 22.8575C81.7053 22.1091 82.6215 21.7348 83.703 21.7348C84.258 21.7348 84.787 21.8302 85.2721 22.0394C85.7574 22.2483 86.1471 22.54 86.4517 22.9143L87.3679 21.9981C86.9523 21.5257 86.4259 21.1644 85.7727 20.9011C85.1198 20.6378 84.4385 20.5114 83.7028 20.5114C82.2601 20.5114 81.0369 21.0121 80.0379 22.011C79.0391 23.0123 78.5384 24.2461 78.5384 25.7042C78.5384 27.1624 79.039 28.3988 80.0379 29.3977C81.0368 30.3964 82.2601 30.8973 83.7028 30.8973C85.2179 30.8973 86.4258 30.412 87.3549 29.426C88.1731 28.6054 88.5911 27.4956 88.5911 26.107C88.5911 25.8721 88.5627 25.6217 88.5214 25.3584L88.5216 25.3582ZM90.3883 20.7332V30.6751H96.1928V29.4543H91.6659V26.3005H95.749V25.108H91.6659V21.9567H96.1928V20.7332L90.3883 20.7332ZM104.332 21.9567V20.7332H97.5002V21.9567H100.277V30.6751H101.555V21.9567H104.332ZM110.517 20.7332H109.24V30.6751H110.517V20.7332ZM118.95 21.9567V20.7332H112.118V21.9567H114.895V30.6751H116.173V21.9567H118.95ZM131.842 22.0264C130.856 21.012 129.648 20.5114 128.205 20.5114C126.76 20.5114 125.552 21.012 124.566 22.0109C123.58 22.9969 123.095 24.2331 123.095 25.7042C123.095 27.1752 123.58 28.4116 124.566 29.3977C125.552 30.3963 126.76 30.8972 128.205 30.8972C129.635 30.8972 130.856 30.3964 131.842 29.3977C132.828 28.4117 133.313 27.1753 133.313 25.7042C133.313 24.246 132.828 23.0122 131.842 22.0264V22.0264ZM125.482 22.8574C126.218 22.109 127.121 21.7347 128.205 21.7347C129.286 21.7347 130.19 22.109 130.913 22.8574C131.648 23.593 132.009 24.553 132.009 25.7041C132.009 26.8579 131.648 27.8153 130.913 28.551C130.19 29.2994 129.286 29.6762 128.205 29.6762C127.121 29.6762 126.218 29.2994 125.482 28.551C124.762 27.7999 124.401 26.8579 124.401 25.7041C124.401 24.553 124.762 23.6084 125.482 22.8574V22.8574ZM136.348 24.4835L136.294 22.5657H136.348L141.402 30.675H142.736V20.7331H141.458V26.5505L141.512 28.4683H141.458L136.627 20.7331H135.07V30.675H136.348V24.4835Z" fill="white" stroke="white" stroke-width="0.26666" stroke-miterlimit="10"/>
</svg>
