<svg width="40" height="41" viewBox="0 0 40 41" fill="none" xmlns="http://www.w3.org/2000/svg">
<g clip-path="url(#clip0_185_2208)">
<path d="M23.7538 32.2306C24.1787 32.2306 24.5231 31.8862 24.5231 31.4614C24.5231 31.0365 24.1787 30.6921 23.7538 30.6921C23.329 30.6921 22.9846 31.0365 22.9846 31.4614C22.9846 31.8862 23.329 32.2306 23.7538 32.2306Z" fill="#23322B"/>
<path d="M25.0813 15.9009C21.2132 14.5514 15.8505 15.7031 15.644 15.7558C15.5404 15.7725 15.4413 15.8101 15.3528 15.8664C15.2643 15.9228 15.1882 15.9966 15.1293 16.0834C15.0704 16.1702 15.0299 16.2682 15.0102 16.3712C14.9906 16.4743 14.9922 16.5803 15.015 16.6827C15.0378 16.7851 15.0814 16.8817 15.1429 16.9667C15.2045 17.0516 15.2828 17.1231 15.373 17.1767C15.4632 17.2303 15.5634 17.2648 15.6674 17.2783C15.7715 17.2917 15.8772 17.2837 15.978 17.2547C16.0264 17.2547 21.1121 16.147 24.5714 17.3558C24.6534 17.384 24.7397 17.3974 24.8264 17.3954C25.0077 17.3951 25.1831 17.3307 25.3216 17.2136C25.4601 17.0965 25.5528 16.9343 25.5833 16.7555C25.6138 16.5767 25.5801 16.393 25.4883 16.2366C25.3964 16.0802 25.2523 15.9613 25.0813 15.9009Z" fill="#23322B"/>
<path d="M37.8022 20.6833C37.6932 20.3907 37.4857 20.1452 37.2154 19.9888C36.9452 19.8324 36.6289 19.7749 36.3209 19.8262C36.0062 19.8708 35.7149 20.0176 35.4917 20.2439C35.2685 20.4703 35.1259 20.7636 35.0857 21.0789C35.0398 21.676 35.2255 22.2679 35.6044 22.7317L35.4989 22.8152C35.4109 22.8814 35.3085 22.9259 35.2 22.945C35.0915 22.9641 34.9801 22.9572 34.8747 22.9251C34.7175 22.8567 34.5787 22.7522 34.4695 22.62C34.3603 22.4879 34.2838 22.3319 34.2462 22.1646C34.2462 22.1646 34.2462 22.1646 34.2462 22.1339C33.0989 17.7383 29.9736 14.5031 25.3407 12.8635C26.2472 11.8965 26.8593 10.691 27.1052 9.38846C27.351 8.0859 27.2204 6.74025 26.7286 5.50929C26.2369 4.27833 25.4043 3.21309 24.3287 2.43845C23.253 1.66381 21.9788 1.21189 20.6555 1.13568C19.3321 1.05947 18.0145 1.36212 16.857 2.00816C15.6995 2.65419 14.7502 3.61683 14.1204 4.7832C13.4906 5.94956 13.2064 7.27132 13.301 8.59348C13.3957 9.91565 13.8654 11.1834 14.6549 12.2482C14.0134 12.4062 13.3845 12.6119 12.7736 12.8635L12.5494 12.9471C11.9202 12.3481 11.1182 11.9625 10.2574 11.8449C9.39666 11.7274 8.5207 11.8838 7.75384 12.2921C7.63077 12.3585 7.52786 12.4568 7.45592 12.5767C7.38398 12.6965 7.34568 12.8336 7.34505 12.9734V15.7515C5.59804 17.12 4.23513 18.9175 3.38901 20.969H1.93406C1.71561 20.9519 1.49598 20.9805 1.28918 21.053C1.08238 21.1254 0.892926 21.2401 0.732899 21.3898C0.572871 21.5395 0.445773 21.7209 0.3597 21.9224C0.273626 22.1239 0.230465 22.3411 0.232965 22.5602C0.232965 22.7844 0.184613 27.0701 0.259339 27.5405C0.275361 27.7436 0.331561 27.9415 0.424677 28.1227C0.517794 28.3039 0.645971 28.4648 0.801772 28.596C0.957572 28.7273 1.13789 28.8263 1.33227 28.8873C1.52664 28.9483 1.7312 28.9701 1.93406 28.9515H3.37582C4.22059 31.005 5.58368 32.8043 7.33187 34.1734V37.6899C7.33303 38.4329 7.62901 39.1451 8.15481 39.6701C8.68061 40.1951 9.39325 40.4899 10.1363 40.4899H12.5055C13.2485 40.4899 13.9611 40.1951 14.4869 39.6701C15.0127 39.1451 15.3087 38.4329 15.3099 37.6899C17.719 38.0965 20.1825 38.0533 22.5758 37.5624V37.7075C22.577 38.4497 22.8724 39.1613 23.3972 39.6861C23.9221 40.211 24.6336 40.5063 25.3758 40.5075H27.7538C28.4961 40.5063 29.2076 40.211 29.7325 39.6861C30.2573 39.1613 30.5527 38.4497 30.5538 37.7075V33.5844C33.1912 31.202 34.6154 28.1471 34.6154 24.9471C34.6154 24.8548 34.6154 24.6789 34.6154 24.4372C34.9237 24.5096 35.2443 24.5133 35.5542 24.448C35.8642 24.3827 36.1559 24.2499 36.4088 24.0591C36.5527 23.9557 36.6906 23.8441 36.822 23.7251C37.1973 23.9142 37.6235 23.9775 38.0376 23.9054C38.4517 23.8334 38.8315 23.6299 39.1209 23.3251C39.1983 23.2542 39.2604 23.1683 39.3034 23.0726C39.3464 22.9768 39.3693 22.8733 39.3708 22.7684C39.3723 22.6635 39.3523 22.5593 39.312 22.4624C39.2718 22.3655 39.2121 22.2779 39.1367 22.2049C39.0613 22.1319 38.9718 22.0751 38.8736 22.038C38.7754 22.0009 38.6707 21.9842 38.5659 21.9891C38.4611 21.994 38.3583 22.0203 38.264 22.0663C38.1697 22.1124 38.0859 22.1773 38.0176 22.2569C37.9555 22.3317 37.8677 22.3803 37.7714 22.3932C37.8887 22.1242 37.9517 21.8347 37.957 21.5413C37.9623 21.2479 37.9097 20.9564 37.8022 20.6833ZM20.2593 2.66134C21.3321 2.66222 22.3805 2.9809 23.2723 3.57715C24.164 4.1734 24.8591 5.0205 25.2698 6.01149C25.6806 7.00249 25.7885 8.09295 25.5799 9.14522C25.3714 10.1975 24.8558 11.1644 24.0981 11.9238C23.3405 12.6833 22.3749 13.2013 21.3231 13.4123C20.2714 13.6234 19.1806 13.5182 18.1887 13.1099C17.1967 12.7016 16.3479 12.0085 15.7495 11.1182C15.1511 10.2279 14.8298 9.18023 14.8264 8.1075C14.8287 6.66847 15.4014 5.28904 16.4189 4.27149C17.4365 3.25394 18.8159 2.68125 20.2549 2.67893L20.2593 2.66134ZM29.2923 32.6526C28.6725 33.2284 27.3978 34.1383 27.389 34.1471C27.2451 34.2718 27.1526 34.4454 27.1293 34.6344C27.1061 34.8234 27.1538 35.0143 27.2631 35.1702C27.3725 35.3261 27.5358 35.4359 27.7215 35.4783C27.9071 35.5207 28.1019 35.4927 28.2681 35.3998C28.2945 35.3998 28.6242 35.1449 29.033 34.8328V37.6328C29.0318 37.967 28.8985 38.2872 28.6622 38.5235C28.4259 38.7599 28.1057 38.8932 27.7714 38.8943H25.389C25.0548 38.8932 24.7346 38.7599 24.4982 38.5235C24.2619 38.2872 24.1286 37.967 24.1275 37.6328V36.5339C24.1272 36.4165 24.1001 36.3008 24.0482 36.1955C23.9964 36.0902 23.9211 35.9982 23.8282 35.9265C23.7353 35.8549 23.6272 35.8054 23.5122 35.7819C23.3972 35.7584 23.2784 35.7615 23.1648 35.791C20.4056 36.5025 17.518 36.5566 14.7341 35.9493C13.7772 35.6512 12.8417 35.2885 11.9341 34.8635C11.7487 34.7779 11.5369 34.7693 11.3452 34.8398C11.1536 34.9103 10.9978 35.054 10.9121 35.2394C10.8264 35.4247 10.8179 35.6365 10.8883 35.8282C10.9588 36.0199 11.1025 36.1757 11.2879 36.2613C11.3538 36.2921 12.6681 36.8987 13.7846 37.2723V37.6504C13.7835 37.9853 13.6496 38.3062 13.4123 38.5427C13.175 38.7791 12.8537 38.9119 12.5187 38.9119H10.1494C9.81446 38.9119 9.49313 38.7791 9.25585 38.5427C9.01857 38.3062 8.88468 37.9853 8.88351 37.6504V33.7866C8.88369 33.6683 8.85638 33.5515 8.80375 33.4454C8.75112 33.3394 8.6746 33.2471 8.58022 33.1756C6.76311 31.8532 5.38493 30.0156 4.62417 27.9009C4.57019 27.7547 4.47333 27.6283 4.34627 27.5381C4.21921 27.4479 4.06788 27.3982 3.91209 27.3954H1.93406H1.7934C1.7934 27.3954 1.7934 27.3559 1.7934 27.3295C1.75824 26.9515 1.75824 23.0657 1.75824 22.6833C1.76257 22.6241 1.77139 22.5654 1.78461 22.5075C1.83141 22.5033 1.87848 22.5033 1.92527 22.5075H3.91209C4.07263 22.508 4.2293 22.4583 4.36015 22.3652C4.491 22.2722 4.58947 22.1406 4.64176 21.9888C5.40371 19.8748 6.78165 18.0375 8.5978 16.7141C8.6927 16.6431 8.76959 16.5509 8.82227 16.4447C8.87495 16.3386 8.90196 16.2216 8.9011 16.1031V13.4657C9.4061 13.2952 9.95166 13.2861 10.4621 13.4397C10.9725 13.5933 11.4224 13.902 11.7494 14.3229C11.8511 14.4516 11.9912 14.5446 12.1493 14.588C12.3075 14.6315 12.4754 14.6233 12.6286 14.5646L13.3582 14.2921C14.1451 13.9486 14.9745 13.7121 15.8242 13.5888L15.9473 13.558C17.0678 14.4459 18.4356 14.9656 19.863 15.0459C21.2905 15.1262 22.7078 14.7631 23.9209 14.0064C28.7077 15.4218 31.8813 18.5866 32.8615 22.9295C33.0083 23.5921 33.0849 24.2684 33.0901 24.9471C33.0901 27.7998 31.7451 30.5383 29.2923 32.6526Z" fill="#23322B"/>
<path d="M9.79341 19.6548C9.63389 19.5859 9.46164 19.5515 9.28791 19.5537C8.95318 19.5719 8.63123 19.6883 8.3623 19.8885C8.09336 20.0886 7.88938 20.3636 7.77582 20.679C7.4022 21.5581 7.7011 22.5163 8.46154 22.8328C8.61737 22.8981 8.78488 22.9311 8.95385 22.9295C9.28867 22.9119 9.61094 22.7963 9.88057 22.597C10.1502 22.3977 10.3553 22.1236 10.4703 21.8086C10.844 20.9163 10.5495 19.9669 9.79341 19.6548Z" fill="#23322B"/>
<path d="M19.3407 10.5999C18.7121 10.5999 18.1802 10.2087 18.1802 9.75151C18.1802 9.5475 18.0992 9.35184 17.9549 9.20758C17.8107 9.06332 17.615 8.98228 17.411 8.98228C17.207 8.98228 17.0113 9.06332 16.8671 9.20758C16.7228 9.35184 16.6418 9.5475 16.6418 9.75151C16.6418 11.0702 17.8505 12.1383 19.3407 12.1383H19.4681V12.3757C19.4681 12.5797 19.5492 12.7754 19.6934 12.9196C19.8377 13.0639 20.0333 13.1449 20.2374 13.1449C20.4414 13.1449 20.637 13.0639 20.7813 12.9196C20.9255 12.7754 21.0066 12.5797 21.0066 12.3757V12.1339C22.444 12.0812 23.5956 11.035 23.5956 9.75151V9.66799C23.5826 9.17793 23.4003 8.70747 23.0798 8.3365C22.7593 7.96553 22.3203 7.7169 21.8374 7.63283L20.989 7.457V5.54931C21.5692 5.59327 22.0396 5.95371 22.0396 6.38448C22.0396 6.58849 22.1206 6.78415 22.2649 6.92841C22.4091 7.07266 22.6048 7.15371 22.8088 7.15371C23.0128 7.15371 23.2085 7.07266 23.3527 6.92841C23.497 6.78415 23.578 6.58849 23.578 6.38448C23.578 5.10536 22.4264 4.0592 20.989 4.00646V3.83503C20.989 3.63101 20.908 3.43536 20.7637 3.2911C20.6194 3.14684 20.4238 3.0658 20.2198 3.0658C20.0158 3.0658 19.8201 3.14684 19.6758 3.2911C19.5316 3.43536 19.4505 3.63101 19.4505 3.83503V4.00206H19.3407C17.8505 4.00206 16.6418 5.07019 16.6418 6.38448V6.46799C16.6641 6.94472 16.8434 7.40067 17.1519 7.76481C17.4604 8.12895 17.8807 8.38082 18.3472 8.48118L19.4681 8.70975V10.5999H19.3407ZM21.0066 9.02624L21.5209 9.13173C21.8461 9.21085 22.0571 9.42184 22.0571 9.6636V9.75151C22.0571 10.1911 21.5868 10.5471 21.0066 10.5911V9.02624ZM18.6681 6.97349C18.5473 6.94559 18.437 6.88351 18.3505 6.79466C18.264 6.7058 18.2049 6.59393 18.1802 6.47239V6.38448C18.1802 5.94492 18.7121 5.54052 19.3407 5.54052H19.4681V7.14052L18.6681 6.97349Z" fill="#23322B"/>
<path d="M28.3385 21.4789C28.2503 21.5275 28.1726 21.5931 28.1098 21.6718C28.047 21.7505 28.0004 21.8409 27.9726 21.9377C27.9449 22.0345 27.9365 22.1358 27.948 22.2358C27.9595 22.3359 27.9906 22.4327 28.0396 22.5206C28.9187 24.0811 28.1714 27.5888 26.1099 29.3119C25.954 29.4427 25.8564 29.6299 25.8382 29.8325C25.8201 30.0352 25.883 30.2368 26.0132 30.3932C26.0776 30.4708 26.1568 30.535 26.2461 30.5819C26.3355 30.6289 26.4332 30.6577 26.5337 30.6666C26.6342 30.6756 26.7355 30.6646 26.8318 30.6343C26.928 30.604 27.0173 30.5549 27.0945 30.4899C29.556 28.4371 30.6901 24.1206 29.3846 21.7734C29.2848 21.5958 29.1186 21.465 28.9224 21.4098C28.7263 21.3545 28.5163 21.3794 28.3385 21.4789Z" fill="#23322B"/>
</g>
<defs>
<clipPath id="clip0_185_2208">
<rect width="40" height="40" fill="white" transform="translate(0 0.81958)"/>
</clipPath>
</defs>
</svg>
